<svg xmlns="http://www.w3.org/2000/svg" viewBox="0 0 107.02 107.02"><defs><style>.cls-1{fill:#211915;}.cls-1,.cls-2{stroke:#211915;stroke-miterlimit:10;}.cls-2{fill:#fff;}.cls-3{fill:#5aaedc;}</style></defs><title>Asset 20</title><g id="Layer_2" data-name="Layer 2"><g id="AG_Logo" data-name="AG Logo"><circle class="cls-1" cx="53.51" cy="53.51" r="53.01"/><path class="cls-2" d="M53.53,9.88a43.63,43.63,0,1,0,7.18,86.66V85.13a31,31,0,0,1-7,.8C36,85.93,20.9,71.46,20.9,53.62S36,21.48,53.69,21.31c17.82-.17,32.42,12.86,32,32.31a2.29,2.29,0,0,1,0,.25v8.7a3.89,3.89,0,0,1-3.13,3.87l-.17,0a3.8,3.8,0,0,1-4.27-3.75v-7q0-.3,0-.63V37.91a5.29,5.29,0,0,0-5.35-5.44A5.58,5.58,0,0,0,68.89,34,23.55,23.55,0,0,0,65,31.42,24.83,24.83,0,1,0,70.05,72.1a15.26,15.26,0,0,0,5.66,4.46,12.67,12.67,0,0,0,1.44.57,14.66,14.66,0,0,0,4.7.77,15.37,15.37,0,0,0,9.3-3.19,14.8,14.8,0,0,0,6-11.48.61.61,0,0,0,0-.14v-14C95.7,27.26,76.21,9.91,53.53,9.88ZM67.06,55.26a13.5,13.5,0,0,1-26.85-.7,3,3,0,0,1,0-.42,13.41,13.41,0,0,1,8.53-13.49A13.52,13.52,0,0,1,62.5,43.29l0,0a13.48,13.48,0,0,1,4.63,10.18A15,15,0,0,1,67.06,55.26Z"/><path class="cls-3" d="M58,51H50.87v5H59.4a6.42,6.42,0,1,1-1.22-6.91h6A11.55,11.55,0,1,0,64.73,51Z"/></g></g></svg>